<svg id="Component_2_1" data-name="Component 2 – 1" xmlns="http://www.w3.org/2000/svg" width="18.957" height="16.249" viewBox="0 0 18.957 16.249">
  <path id="Path_96" data-name="Path 96" d="M7.047,23.822a47.917,47.917,0,0,0,6.432.427,47.918,47.918,0,0,0,6.432-.423,3.517,3.517,0,0,0,3.047-3.48V11.906a3.517,3.517,0,0,0-3.047-3.48,48.708,48.708,0,0,0-12.864,0A3.517,3.517,0,0,0,4,11.906v8.436A3.517,3.517,0,0,0,7.047,23.822ZM11.3,14.567a1.158,1.158,0,0,1,1.784-.975l2.654,1.693a.982.982,0,0,1,0,1.652l-2.654,1.693a1.158,1.158,0,0,1-1.784-.975Z" transform="translate(-4 -8)" fill="#202631"/>
</svg>
