<svg id="facebook" xmlns="http://www.w3.org/2000/svg" width="8.172" height="16.469" viewBox="0 0 8.172 16.469">
  <path id="Path_99" data-name="Path 99" d="M18.7,13.577h1a.174.174,0,0,1,.174.174v6.318a.59.59,0,0,0,.59.59h2.3a.59.59,0,0,0,.59-.59V13.748a.174.174,0,0,1,.174-.174h1.664a.59.59,0,0,0,.59-.5l.387-2.313a.59.59,0,0,0-.59-.705H23.63a.274.274,0,0,1-.274-.274V8.3a.531.531,0,0,1,.59-.59h1.744a.59.59,0,0,0,.59-.59V4.78a.59.59,0,0,0-.59-.59H23.615c-3.836,0-3.739,3.09-3.739,3.541V9.882a.174.174,0,0,1-.174.174h-1a.59.59,0,0,0-.59.59V12.96a.59.59,0,0,0,.59.617Z" transform="translate(-18.108 -4.19)" fill="#202631"/>
</svg>
