<svg xmlns="http://www.w3.org/2000/svg" width="40.002" height="40.002" viewBox="0 0 40.002 40.002">
  <g id="Group_767" data-name="Group 767" transform="translate(-140 -53.998)">
    <path id="Subtraction_1" data-name="Subtraction 1" d="M13433.715,15320h-31.428a4.292,4.292,0,0,1-4.287-4.287v-31.428a4.292,4.292,0,0,1,4.287-4.287h31.428a4.292,4.292,0,0,1,4.287,4.287v31.428A4.292,4.292,0,0,1,13433.715,15320Zm-17.3-29.578-4.456.477v12.657a6.556,6.556,0,0,0,1.626,4.813,6.465,6.465,0,0,0,4.76,1.63,7.564,7.564,0,0,0,3.491-.753,5.289,5.289,0,0,0,2.241-2.13,6.491,6.491,0,0,0,.777-3.211,8.176,8.176,0,0,0-.3-2.384,17.733,17.733,0,0,0-.9-2.257,15.3,15.3,0,0,1-.676-1.63,6.633,6.633,0,0,1-.3-1.48h-4.429a6.149,6.149,0,0,0,.25,1.868,14.047,14.047,0,0,0,.75,1.846,12.385,12.385,0,0,1,.788,1.934,7.418,7.418,0,0,1,.261,2.107c0,1.9-.656,2.86-1.949,2.86a1.6,1.6,0,0,1-1.491-.738,4.609,4.609,0,0,1-.438-2.295v-13.314Z" transform="translate(-13258 -15226)" fill="#f6d58a"/>
  </g>
</svg>
